<svg width="121" height="36" viewBox="0 0 121 36" fill="none" xmlns="http://www.w3.org/2000/svg">
<path d="M9.10559 36C5.8832 36 3.55666 35.1964 2.12597 33.5893C0.708658 31.9821 0 29.4241 0 25.9152V22.4598H6.97961V26.8795C6.97961 27.6964 7.09995 28.3393 7.34063 28.808C7.59467 29.2634 8.02923 29.4911 8.64429 29.4911C9.28609 29.4911 9.72733 29.3036 9.96801 28.9286C10.2221 28.5536 10.3491 27.9375 10.3491 27.0804C10.3491 25.9955 10.2421 25.0915 10.0282 24.3683C9.81424 23.6317 9.43986 22.9353 8.90502 22.279C8.38356 21.6094 7.65484 20.8326 6.71888 19.9487L3.54998 16.9353C1.18333 14.6987 0 12.1406 0 9.26116C0 6.24777 0.695287 3.95089 2.08586 2.37054C3.48981 0.790179 5.5155 0 8.16294 0C11.3987 0 13.6918 0.863839 15.0423 2.59152C16.4061 4.3192 17.088 6.9442 17.088 10.4665H9.90784V8.03571C9.90784 7.55357 9.76745 7.17857 9.48666 6.91071C9.21924 6.64286 8.85154 6.50893 8.38356 6.50893C7.82198 6.50893 7.40748 6.66964 7.14006 6.99107C6.88602 7.29911 6.75899 7.70089 6.75899 8.19643C6.75899 8.69196 6.8927 9.22768 7.16012 9.80357C7.42754 10.3795 7.95569 11.0424 8.74457 11.7924L12.816 15.7098C13.6316 16.4866 14.3804 17.3103 15.0623 18.1808C15.7442 19.0379 16.2924 20.0424 16.7069 21.1942C17.1214 22.3326 17.3287 23.7254 17.3287 25.3728C17.3287 28.6942 16.7136 31.2991 15.4835 33.1875C14.2668 35.0625 12.1408 36 9.10559 36Z" fill="#212121"/>
<path d="M19.6953 35.6786V0.321429H26.7151V12.9576H30.0444V0.321429H37.0641V35.6786H30.0444V19.6473H26.7151V35.6786H19.6953Z" fill="#212121"/>
<path d="M48.6166 36C45.7953 36 43.6359 35.1496 42.1384 33.4487C40.6542 31.7344 39.9121 29.2634 39.9121 26.0357V9.24107C39.9121 6.21429 40.6475 3.91741 42.1183 2.35045C43.6025 0.783482 45.7686 0 48.6166 0C51.4646 0 53.624 0.783482 55.0948 2.35045C56.579 3.91741 57.3211 6.21429 57.3211 9.24107V26.0357C57.3211 29.2634 56.5723 31.7344 55.0748 33.4487C53.5906 35.1496 51.4379 36 48.6166 36ZM48.6768 29.4911C49.7464 29.4911 50.2813 28.4531 50.2813 26.3772V9.12054C50.2813 7.37946 49.7598 6.50893 48.7169 6.50893C47.5402 6.50893 46.9519 7.39955 46.9519 9.1808V26.4174C46.9519 27.5156 47.0856 28.3058 47.3531 28.7879C47.6205 29.2567 48.0617 29.4911 48.6768 29.4911Z" fill="#DE6040"/>
<path d="M62.9368 35.6786L59.1462 0.321429H66.0456L67.9911 22.6406L69.9766 0.321429H76.5551L78.4404 22.6406L80.3257 0.321429H87.3053L83.4545 35.6786H74.9907L73.2258 18.6629L71.541 35.6786H62.9368Z" fill="#212121"/>
<path d="M89.4112 35.6786V0.321429H96.4711V29.6518H103.731V35.6786H89.4112Z" fill="#212121"/>
<path d="M108.726 35.6786V24.0469L103.09 0.321429H110.089L112.055 12.2946L114.02 0.321429H121L115.384 24.0469V35.6786H108.726Z" fill="#212121"/>
</svg>
